<mxfile host="app.diagrams.net" agent="Mozilla/5.0 (Windows NT 10.0; Win64; x64) AppleWebKit/537.36 (KHTML, like Gecko) Chrome/131.0.0.0 Safari/537.36 Edg/131.0.0.0" version="24.9.2">
  <diagram name="第 1 页" id="vUy5XkHIIizd0actGJSG">
    <mxGraphModel dx="1141" dy="625" grid="1" gridSize="10" guides="1" tooltips="1" connect="1" arrows="1" fold="1" page="1" pageScale="1" pageWidth="827" pageHeight="1169" math="1" shadow="0">
      <root>
        <mxCell id="0" />
        <mxCell id="1" parent="0" />
        <mxCell id="-TU9CiSfj5TCnxWYMpBO-4" value="&lt;div&gt;&lt;br&gt;&lt;/div&gt;&lt;div&gt;&lt;br&gt;&lt;/div&gt;&lt;div&gt;&lt;br&gt;&lt;/div&gt;&lt;div&gt;&lt;br&gt;&lt;/div&gt;&lt;div&gt;&lt;br&gt;&lt;/div&gt;&lt;div&gt;&lt;br&gt;&lt;/div&gt;&lt;div&gt;&lt;br&gt;&lt;/div&gt;仿真环境" style="rounded=0;whiteSpace=wrap;html=1;labelBorderColor=none;textShadow=0;labelBackgroundColor=none;fillColor=#e1d5e7;strokeColor=default;fillStyle=auto;fontSize=17;" parent="1" vertex="1">
          <mxGeometry x="410" y="850.41" width="195.87" height="209.59" as="geometry" />
        </mxCell>
        <mxCell id="RbJy5xU_9MsWEOmdEW4p-9" value="" style="ellipse;whiteSpace=wrap;html=1;aspect=fixed;strokeWidth=2;fillColor=default;strokeColor=#000000;" parent="1" vertex="1">
          <mxGeometry x="474.84095238095256" y="926.91" width="64.76190476190476" height="64.76190476190476" as="geometry" />
        </mxCell>
        <mxCell id="RbJy5xU_9MsWEOmdEW4p-10" value="" style="shape=image;verticalLabelPosition=bottom;labelBackgroundColor=default;verticalAlign=top;aspect=fixed;imageAspect=0;image=data:image/png,iVBORw0KGgoAAAANSUhEUgAABAAAAAQACAAAAABadnRfAAAABGdBTUEAALGPC/xhBQAAACBjSFJNAAB6JgAAgIQAAPoAAACA6AAAdTAAAOpgAAA6mAAAF3CculE8AAAAAmJLR0QA/4ePzL8AAAAJcEhZcwAAAGAAAABgAPBrQs8AAAAHdElNRQfoBBEABRfVQtT3AAAz6UlEQVR42u3deXxV9Z3w8d+9BAIB2VEEBBRQtoQoglXUigqjVq0b6uhoHa19prXWmU5nnnlendfUrlOtS7UquGFd6oYrRUTBXfYtYQn7TthCSISEmJDc+/wRloRsZ7n3fH/nfD/vf5TkLt8LuZ/ce+45vxNLGgBaxaUHACCHAACKEQBAMQIAKEYAAMUIAKAYAQAUIwCAYgQAUIwAAIoRAEAxAgAoRgAAxQgAoBgBABQjAIBiBABQjAAAihEAQDECAChGAADFCACgGAEAFCMAgGIEAFCMAACKEQBAMQIAKEYAAMUIAKAYAQAUIwCAYgQAUIwAAIoRAEAxAgAoRgAAxQgAoBgBABQjAIBiBABQjAAAihEAQDECAChGAADFCACgGAEAFCMAgGIEAFCMAACKEQBAMQIAKEYAAMUIAKAYAQAUIwCAYgQAUIwAAIoRAEAxAgAoRgAAxQgAoBgBABQjAIBiBABQjAAAihEAQDECAChGAADFCACgGAEAFCMAgGIEAFCMAACKEQBAMQIAKEYAAMUIAKAYAQAUIwCAYgQAUIwAAIoRAEAxAgAoRgAAxQgAoBgBABQjAIBiBABQjAAAihEAQDECAChGAADFCACgGAEAFCMAgGIEAFCMAACKEQBAMQIAKEYAAMUIAKAYAQAUIwCAYgQAUIwAAIoRAEAxAgAoRgAAxQgAoBgBABQjAIBiBABQjAAAihEAQDECAChGAADFCACgGAEAFCMAgGIEAFCMAACKEQBAMQIAKEYAAMUIAKAYAQAUIwCAYgQAUIwAAIoRAEAxAgAoRgAAxQgAoBgBABQjAIBiBABQjAAAihEAQDECAChGAADFCACgGAEAFCMAgGIEAFCMAACKEQBAMQIAKEYAAMUIAKAYAQAUIwCAYgQAUIwAAIoRAEAxAgAoRgAAxQgAoBgBABQjAIBiBABQjAAAihEAQDECAChGAADFCACgGAEAFCMAgGIEAFCMAACKEQBAMQIAKEYAAMUIAKAYAQAUIwCAYgQAUIwAAIoRAEAxAgAoRgAAxQgAoBgBABQjAIBiBABQjAAAihEAQDECAChGAADFCACgGAEAFCMAgGIEAFCMAACKEQBAMQIAKEYAAMUIAKAYAQAUIwCAYgQAUIwAAIoRAEAxAgAoRgAAxQgAoBgBABQjAIBiBABQjAAAihEAQDECAChGAADFCACgGAEAFCMAgGIEAFCMAACKEQBAMQIAKEYAAMUIAKAYAQAUIwCAYgQAUIwAAIoRAEAxAgAoRgAAxQgAoBgBABQjAIBiBABQjAAAihEAQDECAChGAADFCACgGAEAFCMAgGIEAFCMAACKEQBAMQIAKEYAAMUIAKAYAQAUIwCAYgQAUIwAAIoRAEAxAgAoRgAAxQgAoBgBABQjAIBiBABQjAAAihEAQDECAChGAADFCACgGAEAFCMAgGIEAFCMAACKEQBAMQIAKEYAAMUIAKAYAQAUIwCAYgQAUIwAAIoRAEAxAgAoRgAAxQgAoBgBABQjAIBiBABQjAAAihEAQDECAChGAADFCACgGAEAFCMAgGIZ0gMAulXsTvc9ZPSONf096YcPaLb5i7mVab+TPpeMad3Et2JJ6b8BS1V9E8jdtOoq/UAhJrExL68wmLvqcumFHRr9BgFoKLl99bqtRYlg7qzT4KEj20s/Yhnla1cX7S/9Npg769TtxFNPPTnm92b2vrjp8P9lXDq+jZ9bSq6fv3B/MI/dGGNM69FjBzTy5SYCUFkWyM9/q84p2giZKD72/9183WZy1aKlpUE89mMyRlyQ4/snM2zKZ8/ZGvgvn445uSP8vOlNfvJWndfr3W490/tNbXppc9CP3vS7+JzM47/WIABVqzds2F5eHdBIGSf17Jfdz/dPf+mkNcf+MOhH3b3f0FdfFHu+sg99rhyl6vOYXdPnV8ncc4dzL+rl9bo7X1hX/wvn39LO2y0lZ005JPHos8Zc3LP+V44LwPqvF1QEPlXHnAsH+bqBFc8cqPvHdred6+12iqZ/HVT5GjjlNn9/B2FSNfUjsb9nY2JnX3WKpyt+9lqDJ+2JP+vt5ZaKnl/j5WopefS5l51e7891A7D1jQKhsfqMvaC11+sm3v3g+Jcx37ndQ5nL3vssoPf9jYqN8frrJGxWPS/yKuuY2PkTTnB9pUMvfd3IVzPvHun6lpKfvZn+Df/NGHD9kDp/F8eeO5WvfiW4RbDrNWO8vQguf2J1wy/2uM9tmZOfvlsu9+hrh/6X04QnCMSs1yQ7W6v9zee7vEbxE5sb/Xr8n8a6vKVvJy8UfvSxi288uv3yWAB2PLlDdqxeP+rn4VrFjzQ6drt7hrm6mT2TxV6UHdPqVrc/TOGTePFL6RGMMcaM/kGWm4sXTCxr6lsTrnB1x4VP7JJ+7Mb0v/fIx8+t7j/8P8seKhUe6sDc3ie7vtK2B4oa/Xr1vE79XdzMgkfTvjuWA8n8miFR/zjAkue/KVyU3cH5pRc80fSL9oJOp7q438WPBrODSfNKF2R3rP2/IwEoeFxoq2wdNQsyB7q8SsEjTYU5mV85zOmTKfnaG4IbpepaWzoi2gV452PpCY4on3ea40+Lvny+uXcty052/n7zk8l2/KR9uyC7kzHmaAA2PCr//DfGrCzJcbUhYNljzYy93umTKTn5c+kHftSWimzpEdJpzmvSExxzaOHpDgvw8SvNbxzLO+1EZzeUfOttW3a8q1o6KsuYIwGoePCAr1tLmS3rcl3sXrXqL81+mLrlgKP9a5LPz5Z+2HVsaHWG9AjpU/KYyKffTahZNLSLk8u9/1YLF0gsGebohpKTP5F+zMd8u2pMK3MkAC+slR7niL1LnL81W9/Sy5ZNBx38OrXr+W/M6v49/d+IpSZtl56gnurFOR1bvtRHLT3/jalZfl5myzeUfMmS7R+19u8/0xwOQH7LDzEwZfMGOHxhtvmhFncj31g5vKWL2Pb8N2b5aFfbp0Nk4TTpCY5zaMmZLf66WfCigxuq2HJuyy82X/tU+vHWt2XASYcD8GyJ9Cx1VM1ztk1l7x8dfG6/vv2A5i9g3/PfHNrtcUdG6z1rwwbweiqXjmyhtmuecLTXQlFySEsXecOa7Z9HrB8bN3FjzPKN0pPUUz1xhoNLVT3paLPF68ua/XbyJeue/8Ys2yI9QXqssPBxFT9Y2uz3d/zF4Vb7aYtbuMBbTn6qg1X0We2SYFOlBzlO8o23WtxWmnx+s6PbSjyzp7lvT/lc+sE25iPpAdLDvmeAMWbPwweb+W75I053D02+0PzL6Dc+kH6kjZh2yMSNWb5eeo4GPpjc0uuu6Qsc3lT5Y80c3fT3D6UfaaMWBHmceGCKpQ40ad72Zn7HJ10ctVD+XHO/td6wsn7755u4Me9Jj9GIrx9v/nCJ5W87vqkdk5v81ifvSD/OxtUskZ4gHebZ8hH4cVY3/cydudTF7RTMavp7dj7/jfnCxM06u7YAHJb/YFkz3y2b7OKHadHcJr4x52/Sj7IpkQzAfOkBmhzszSa+sXGKq9uZ0uTyXrY+/82GfXEzT3qIxm38/b6mv/lyqZub+lvjl8573tJfScasCmidrCAdtGsfgLpmNP67++Akd7vtHnq2ictb+/w3yfx4YpH0EE3Y9Ycmj8+Z63QDQK3G351tniR/VGpTqi3cXu7XRmtza8yrjT4JphS5vJktje/nYOH2/6NWxzdau8Gp+I9NvKQqcfvSfeVXDb+251HRRRlasFV6gNTb5P8m0ib57LqGX9zwhevbmdZYuK3c/n/ExrjF/y6lf2z8F+HfXK/c8WaDDQplj1obPmMiGQCbdjZroOrxncd/KfGi+5csNc83fBNg7+t/Y4wptjkApuyBRsJsVrW0y0VD5cfv6lD1mAWrMjRjr/QAqVcqPUCzyhocpj9rm4eb2dbgTYDdz3+TjAsvA9S8iocbfnac8HJE6af1n+/JZ+zb96Geg/5vwjZl/m8inYr+XP8tYcm7nm7m+DcBlj//jYlLL4TXvMpHG3wS+5WXMtfU/0DnLfcvIoIVwQDYvtDJ5ifrbRSe6u2DmJr6nwRY//y3PQCm+snjNtBWeNt5Z0ndJf/mTpd+WC2xeQOlR9afhXL5X+u86d/7tcdbKaz7ysH+57+JW7ESUDNqJtUvwEyPG+/qbAXY9IL0g2pRW+kBUs/XebQC8dX7x/5/mueVu2Yce3cZgue/iVu/Fn39AlTN8ngzBUffOZT+xaZlaRoXwRUBukkP0LL3jy7YUeT1BYAxieeOvHwLw/PfxO3/UatXgC89r1125BC7Q09Y/YFULfv/VVw7SXoAB1488pM2rcb7jex+tfa/oXj+m7iDNZGk1SlAjfe/1Pmltf99cYP043HA4SKTYRKGhc4STy83xhizf46fW/lyvjFhef5nxr2dJi1Yxwow3/tJpaprF2SaaeEKIA31lR4g9QaG4eyn1U+sMcaY2f7W7v7r7rA8/03vuJuTGog5WoCZPm7ki4QxZtMb0o/FkTBk2aV2ofhJq3pskzFJn4t3fjvxUEie/2ZgPByno6uZuMgYYwo3+7iN/auNMW/4eHMXnDZeTpJmuxbXZ7VCxSOFZo3f3US3/Cokz38zNN47DO/NjElMXGSM8ffyfb4xeRacAdCBYfZ/ZubeebbvClSr7KE9/lfv3un7FoJxcnbcnCM9hDOJiQtNYq6vm1hcnbBo/fPmuD/ldAicGJIznpQ+aOsR8ql3VTzDfGeqxQdq15GYZNqW+rqF8pWrC33dQFBa50pPkBYXr/Z/G0HwvqE5bHqeYzJMz5EhCV5ikvuTB9f3ug2nAHbgvPbSE6TF2ad4OYwD6XNj3MSNuSYc782MSfj9/b0rHK91YuOlJ0jT47peegLUM+ZMY+LG9B4tPQjqOauX9ARpMiJXegLU0eUWU3tikOtaSY+COtrfKj1B2tzZSXoCHNXq7ixTG4ATL5SeBXXc4ehU06F0wg/DsDugDrE7hxhTGwDzfesPCVTksrOlJ0ij4f8kPQEOu/E8Y8zhAHS6Q3oaHHH+jdITpNXYa6QngDHGxK65rPZ/Wt1vjDG992+WngjGGGPOvSviL5IHt1klPQJM6x9eevj/YrWfjB360zrvt4ZUiV1/RVg+k/VuwXP2L8gScZ3uHXDkfw8HwFQ+Go695COtyx050iMEofDZCJ74KERi593c4dgfjuwbU/X4SunBlIuNvUHJxtiaadNtX4oywnrePqTOn44GwCRmvBOKQ2UjKmP0lX73dA6Rsg9nkQARfS4Z07run2N19o5d96zbsyEiNeJnjDxb2T4y++d9Ze/pgqOq9dBLhh+3kaluAEz119MidiRU28Z3cmxjzSL1rbPad+jTt180j/5pwY41qzfus/cUzRET63FG7rDMhl+uf3xM9fyFK/2th2ZiWcaYWLsj/1e7wG3W4e5kHn7mxY8sfH/kGdrqyGjtDn8M1uroJQ5/IePoJRrbUJ4V/a3nkVRTnOYEVEgUplrkxC7NnU6qW8+TG19kJtbgALmKFVt37SrPMKb22ZlVe+6AjMza35vt4sZkHf5j69pnZ6u25vAz2v6TDACoKxaOI2QBpEPE9zsD0BwCAChGAADFCACgGAEAFLNmjxgE6dvd+4pLSoqryhPfHqpq07ptvH1m165dunbtmen/thEmfAyoTdG2bdu3FjXxzx4/qW/fvv1OkJ4RgSEAilSsW7N+W0WLF4v1GTbs9CienAwNEQAlDq5ds3qr891iWw8cOaqj9MxIPwKgwdYledtc7xMfH37OSDYJRB0BiLrEuiVLvR7m3WbUuCieqBzHEIBIS6xYvPSAr1sYMn4EB1pGGAGIsL1ffVXi/1Z6jj+PdwKRRQCiqnrp7OUpOha+3TnjFS1XpgsBiKa9M+eUpfDmYrnjhvi/FdiHAERR2YczU772/sBrh0o/LKReGAJQ6XORsuNlRnz/58oPPk7LklRDrhso/dCQamEIwJOLUnt7t4+VfkTplFzwRgq2/DUu5+Zobwv4vyl+NvzK/sVeI/7LUJ8dL65N340vKxh/dZQ/EShKcQBCsOQxAYiUmo/eTfH7pfqqp8+5YYz0g0QKEYAo2fjcznTfRelz8+7sIv04kTIsCBIdiel/SPvz3xiz4pdzpB8pUoZXAJFRNGljMHdU8ezy27KkHy1SgwBExbJnygO7r3lr/8/p0o8XKcFbgGhITv9zcM9/Y/Y9MF36ESMleAUQCRXPLw72DhNTtt/BokERQACiYNsTewK/z7k77u0m/bjhG28BIiD/d8E//43Z8vtC6QcO3whA+M37S5XI/Zb87zrphw6/CEDoffJMjdA9lz+0TPrBwycCEHbvvSJ3PFfV4/OkHz78YSNguCVf/1jy7muejZ0j/VcAPwhAqCWfny07QOLZzFzpvwT4wFuAUHtD+PlvTM2Ty6VHgA8EIMze/0h6AmOqn1wvPQK8IwAh9ul70hMYY0zlnyX2QkBqEIDwmveK9AS1yv98UHoEeEUAQmvZc7as57hzUgjWvkKjCEBY7Zoktf9PQ8vfkJ4AHhGAkKp4rEJ6hDo+XiA9AbwhAOGUnLxLeoR6Xt4vPQE8IQDhND3F50rwq+yv0hPAEwIQSgXvSE9wvKW8CQglAhBGxRPt2+z+ygHpCeABAQih5HOpPPNvihywZK8EuEIAQmj6aukJGrPAss0ScIIAhM/W96QnaNzLFr4uQQsIQOgkJqf19H/e7edNQPgQgNCZsUV6gqbM501A6BCAsNk7VXqCpr3EJwFhozEA4T6hxcuV0hM07cBr0hPAJY0B6CE9gB95Vi/EOzfgExTBL40BOFF6AB+qX5eeoHmvBHmGQvinMADtOklP4MPM3dITNK+UNwHhojAAvWPSE3hX8YH0BC2ZvUR6ArihMAC9pAfw4UP7X2G/wvpgYaIwAF2lB/DuG9GzgDhTwpuAMFEYgA7SA3j3jsUfAR71tdWfU6A+hQGwZyk9t9Z8JT2BI3+1abEyNE9hAPZKD+DVzom2LAPcvJKnw/BCBcYYlQHIt/RYmhZUfPL7b6RncCj/twXSI8ChmMW/VKq3FB4oL68w60tSe7vn3Z5pjKko3Lmn7KDFD7+uRMWBnaHqVt/BPZPfSg/h2lsp/nGY0CmrY3e7dzuxNgCFc9ZuOZSm2243sO3+vcXSjxA6tOnVt+8Z1u58YmcAvp399WbpGYDU6Th0ZI6VB6HZGICaz6eyyjyiJvOssYOkZ2jIwgAsf9Wuc14AKXLKZd+xbau7dQGoeesj20YCUuWk73/Hrq0BtgWg+KmN0iMAaTTw1v7SI9RlWQB2P5Dij/wAy8T+0FN6hDrsekuyi+c/oi5p1Q7dVgVgL89/RN9sm45GsSkAh54slR4BSLtv1khPUIdNAXh1s/QEQABWSA9Qh0UBmP+59ARAEJZLD1CHPQGofEN6AiAQhRYtmGBPAD5kAyB0SBZKT3CMNQEomSE9ARCQ7dIDHGNNAGaxigy0sGhRKlsCUP219ARAUCxa3N2WAKzmAGCoYdGpE2wJQJ70AEBg0rXUlQe2BGC19ABAYCxaG8iSAFTskJ4ACEym9ADHWBKA3XYdlQykk0Unp7IkAEXSAwDBOUl6gGMsCUCZ9ABAcCxaEcSSAITvHBKAV7He0hMcY0kA7FooEUinvu2lJzjGkgC0lh4ACMxQ6QHqsCQAdp8/DUilHOkB6rAkAF2kBwCC0uMM6QnqsCQAfdgIAC3G2PTDbkkAMi36ZBRIp4wLpSeoy5IAmCHSAwDBuMCq97u2BCBbegAgEBnfk56gHmsCYNFHo0D6jOsmPUE9tgQg4zvSEwABOPEa6QnqsyUAZrw1kwBpE7vDorUAjLEoACeeKz0BkHY32La125oAmOssSyOQcudeIT3B8ewJQNfrpCcA0ivnn6UnaMCeAJjxg6UnANLpzHvtO+jNogDEfmzVHhJAal34kwzpERqK2bQY3/Y/WnTGBCCVMm69SHqExlgVALPhUQqASDrtjlOkR2iUXQEwhY/skx4BSLmsay+x6RDAOiwLgCmbWCA9ApBaHS4ZZ+2e7rYFwCTe+TAhPQOQMrFBY86x6EQgDcazLQDGrH2OswQgGtqckZ3bQ3qIZlkYAFM1/YNq6RkAv3oMG5pj8e/+WjYGwJjd7yy0ci7AmXbDhg+367jfJtgZAGO2fLCYTQEIpVi/7OwBFu1h1/ywlgbAmD2fz94vPQPgUuawETmdpYdwwd4AGFOzYvFSThqI8OiRkzvYwt19m2NzAIwxya2rC9ZUSk8BtCg+KCe3l/QQ7lkeAGOMqV63cuUW+8eEYu2yzxpu7b4+zQpBAIwxpmxVwfJi6SGAxnTLHjE8ZC/8jwlJAIwxpmhlwYoK6SGAenrl5g60dDd/R0IUAGNMYkNeAe8GYIn4gNyRYT+lVbgCYIwxe1fwQgDyMgePOjNLegj/whcAU/tCYLP0EFAs1G/76wllAIwxZs/y/FUcMQAB/c7M7Sc9Q8qENgDGmMoVecvYWRBByjjjzNxQ7OPvVJgDYIxJbsnLZ6sggtF+6IgovO2vJ+QBMMaY4uV5K3kzgDTrPjwqb/vriUAAjDFVBflLv5EeAtHVa1Ruf+kZ0iMaATC1bwY2Sw+BCGo9KPfs6J6xIjIBMMaYopW8GUBKdcjJzW4rPUQ6RSoAxpjKVflL+GQAKdEjN3dwWBb28CpqATDGJDbkLd0pPQRCLj4gN4xH97oWwQAYY0zh0qWbovnIEIAOw0dkh/PoXtciGgBjzIFl+ctYSgSu9coddkYr6SECE90AGD4dhFtthuSOiO4W/8ZEOgDGmMT6pUt3Sw+BUOiVkzMogrv6NC/qATDGmKK8vNWsMY7mdBgyNDtS+/g7pSEAxpiy/Pzl30oPATvF+w4dFvmP+5qiJADGmKqVectKpYeAbXoOHz7Y+vN3pZGeABhjklvz8/l0EEe0GTwip7v0EMJUBcAYY8pW5eUdlB4C8joOj/hOvs6oC4BhRTHE+o3I7RfmtXxTR2MAjOG4IcUyB+fmdpYewhpaA2CMqSrIzyuVHgLB6pGbe7q6z/qbozgAxhhTmJ+3XvffgCLxAblnniw9hG2UB8AYU5q/chXnII68btnZwzR/3NcUAmCMMUUrC9hPKLriA3KHss2vcQTgsEPrli/bIT0EUu/E7OwhbaSHsBcBqIOzjkVMm4HDhvaXHsJuBKC+Q6uX5pVID4FU6JWdfXpr6SGsRwAa4qOB0GszMPcslQf3uUYAGlWct2RNjfQQ8CTWJzt7kJ4lfXwiAE2pXLWQgwZCJ3Nwbk5X6SHChAA0o2ZN3tK90kPAqVj/4TmnaT2u3ysC0AI2CIRDhyFD2cPfAwLQsgPLFnLgkM3ifYfmDmRHH08IgCNVBZxwyFIdzxiRq2QN/3QgAE4l1i5fvp2/LavET8vNOUV6iHAjAG7sX1PAEcS24Lj+VCAALiW3FKxkFwFxHNefIgTAg8pV+cuLpYfQi+P6U4gAeLRt2bL1nG0keJ1zcoZzXH/qEADvKlexpliweuXycV+KEQBfkusXLt4nPYQS3a8e0VF6hughAH4lNy5axP7CaZdx/o3tpGeIIgKQCpsXLuYUxOnTo0fngWd1kp4imghAihTm562TniGqWk+4lHf+aUIAUmf34kWb+etMi9y7OkiPEFEEIKX2r1yx8hvpIaKo84+GSI8QTQQg1ZLbVvBmIPXiN42XHiGSWD8h1WJ9L+INa+olXptUJT1DFPEKIOX2P7xVeoRo6ncv63ymHAFItR2P7ZEeIaq6/nsv6REihwCk2LJJnFokbdrfN0h6hKghACmVnPYuf6Fp1OYnI6RHiBgCkErfPFMgPULExX94rvQI0UIAUqjg2VLpESIvfucY6REihQCkTGLqVP4y0y92FwVIIZZVSpW9EzdKj+BWPKudSRwM2UbL5GRDAVKHVwApsuiFUJ1H7IRBA/v36Fq7G1jxzsJ1q8ulJ3IudsMV0iNEBwFIiUOvfSY9ggtZo0efcdwuoIlNc+eFpwHn3cF5v1OEAKTCzonbpEdwrvu47za6qF71gg92SM/m1ICfdpYeISIIQArMfrlSegTH2l19aZPbfZILpoRlseMuP+svPUI0EADfEn/7VHoE50be1uzKOpXvfRySpY7b3DVaeoRIIAB+lT8Vnp1/Wk8Y19JFNk4MyQKHsctv4KhL/wiAT8UP7ZIewbETft6/5QuVTQxL0EbezQkCfCMA/ux9sEh6BMe6/3tPJxerfm6+9KQO9bmvu/QIoUcAfNn+cKn0CI51+aXDw+mTL30uPatDHX/K0YE+EQA/FkwOz+b/9v+vt9OLJictkJ7WoYzbLpQeIeQIgHeJt2aE528v/gsXq2pWP7RGel6nxt7C3ux+EADPyiatlB7BhauvdXPp/b8qlR7Yqf4/ZaEwH1gU1Kst94fp+X/a911dvOPdofmIbfNvQvNqxUYEwKO5fwjLTnPGGBO71eU/9NALpEd2bP+D06VHCDEC4EnNK8+EapHqC05ze40J4TkVT2LK06H6x7AKAfCi9IFPpEdwpZW7NwDGGNPhaumhXZj3O1Zi9ogAeLD21yE79c85Xd1f56LO0lO7sO3+JdIjhBQBcC354QOl0jO41OIRAI1oHapTcVU8wXpsnhAAtyqefDMkB8wddXJ/L9ca00p6bjeS7z4esrXN7EAAXNr5u8XSI7jm7cDZjjnSc7uTd/926RFCiAC4M/fXoVk155hcb1c7R3pul/b8Lix7MFuEALiRmPJMeHb+Pyqzr7frDQvNzkCHVU58sUZ6hrBhR2oXiiZukh7Bi1M9Vr5D3y3So7v1+e4fnyA9Q7jwCsC5xb8O5fPf9PF6Rdd7D8lb9asN0iOECwFw6tCrT4Rn3ex6PB8sc7L05B6U/PEL6RFChbcADu2YGNptzJ6XzXG8gIBNqv+6+VZ+qh3jr8qZMK38fbx2Xq/YWXpybz7fdC9HCDvFWwAnvn3mufA+/71HPkt6co+23B+WdU3lEQAHtvx6rvQIfnj+N/b80kFa2cPhOlhLEG8BWpSY8W619Ay+eH7xEqrTndaTeGXbP/Gj7QR/Sy0pem6t9Ag+eX4el0hP7sMXO37aUXqGMOAtQPOSn/532J//3gOwT3pyP9b9rlB6hDAgAM365rGXw7/YzG6vV9wqPbkvRb9ljYCWEYDmLPzvfOkRUsDz4UubpSf3p/KJ91gjoCVsA2ha+cthOUdW87Z5vF4ynHs+13kA7+++s7X0EJYjAE1a/1SYN4LVUbL7JE/X21AmPblv8/bc21l6BrvxFqApc/8Ukee/MR53i8mTnjsFNv56o/QIdiMAjUu8Gq51v5uV5+layYXSc6dC6QPzpEewGgFoVPnDM6VHSKEVnl7LrIrGUttVT7NKSDMIQGO2/zpSO5MnPO3J/Jn02Kny+SPh35iRNgSgEfl/KJIeIbVmediXuTB8i582peB/wv55RvoQgAaS0x+L2gLTJV+7v867EfoMveR/PfwF6EAAjlf55JQI/egfNs31Fs21kdqN7tDzr4XtZA4BIQDHKfptdF76HlP8d5dXqH4xYhX8+IH90iNYiQDUV/CbaB5CMsPlw5oawtMfNG/tbzZLj2AjAlBPZDcYV0909SZg1QfSA6de8e+/kh7BQq3ul57AItUv/D1iL3yPOfDNmc4vXPxQiFdAa1JiafkwfuEdJxbZn3j3Sp+I9JryN13m9JJl/xu5NwCHDbqnk/QIliEAR238S6n0CGkVu2uMswtWPBzdEHa591TpEexCAI6Y/eIh6RHSLH7HBU4utv+R0J0RzIXWt58vPYJVCECtxJsfSY+QfrHrv9fyhXY8Fo1jAJp08S2tpEewCAEwxhhT8Uye9AiBGHlnS2v9L34+artBNjDoJ52lR7AHATDGmB2Pe143L2R63t3sGT/LXp8tPWEAutwzQHoEaxAAY0z+05H/rXdU7KLr2zf1vcTsNyO6G8RxMm67UHoEWxAAk5z+tqq/hPbjxjX6PiC58L2d0rMF5iJOIFqLAFRNtmHpzxE1K4K7s3ZjxvQ//mslX39RnP577jXkC0vOsjTwns7SI1hBfQD2PW7Bh149/zGnelKgByH1zh52epsjf6jeujJvUxA/CP1/fkLRu/Ps+JHrfM9A6RFsoD0Aa56SP0is7VXjM4xJPBfwGUjj3Xv3yMoy+0p3bg9ozawz7mtnjNn21rJgH2gTMm4ZKz2CBZQHYNbr4uvFxc6d0NkYY0zypc+lZ0mvnHsOv+ZYPcWOpXovvI0NAaoDUP2S/PFh/W4ddOR/k2/OkJ4mnUb/6OgOOMlFb+6VHscYY/rd2016BGmaA1D8xGbpEbpcNyZW54/vvS89UPpcdFvdI/GqPvzQhgMOO90zyP+NhJriAKx9Uvrtf+YlV7Wt/5UvXxJ/S5Iesau/H6v/ldL3v7DgZy9+/RXSI8jSG4CZrwuvEhe/4NqGx6aueCqS+yS1+eGohl/c9No66bmMMeffrvr0gVoDcOgl6XVih958SmNfLnw0gI/jg9bhZ42/0s57zYIDj/r9tLv0CIKUBqDwaa+nzE2RU24a1sR3Sh/bLDtaGh7sfU1ta6ue9feD0tOZjj8eLD2CHJUBSM6aInvsf+frzo81+c3Kp5eKDpdyOT9u2/Q3y6Z+Jr5vYPyGy2L+byWcNAbgwDMB7nbbiMzLL8ts7vuJd6ZH6F8l9r1rm1+Ib9/Ur8W3fJ59dxv/NxJKCgNQ+vB2ybs/uuNPM/KfLZccMZXa3TWyxcsUT/tS+rQdZ/xbpv8bCSN9Adj1kOhWtqH/2MfBpfY8uVVyyNTpf4+jLWyFb0u/7Rlyn84CqAtA4YOSn/53u/lsZxeseln6U4qUGHuL051tC/4mvBJxzr+q3A6gLQAHfiO4D2qby69w/lbz81dDv0hp5g/OdX7hmk/ek90F4ns3iN69EGUBqP7TWrk7H3mzqw+ctz4T8rOUnfajk1xdfv/bX0n+NMZ+PMr/jYSOsgC88KXYXfe6dajLaxx6a2aI/3VaXX2l69PwbPqb5BkJsv6g8KwhugKw5C9S99zh+2M9LEZd8Pw+qYH96nV3fw/XSs6Z8o3czKN/LHffUlQF4NtfCj2fMsZd2dJy3I07+JIN65W5F7v0Bo8frFdMnSW3Y9C/jhC7aymqAvDaxyJ3Gxt9g/e9zee/EsKFenvc4fbtTh27Xl0uNXfv36r7JEBTALbdL7K7yaCbT/Nz9bLX54Ts3yjjsqv87Ve39HWpY4TuPUvojsVoCsAkiZfT3a49z+9vlTUvhepkvYN+0NvvTdR8+s63IrOf+j8idytIUQCK/zP4FwAdrh6bgmXnDn3wgfgBM44f8U1jUvEyuuTN+SI/mf+t7ZxBigLw6syg7zHj0ivb+78VY4zZ+eKaoIf3JHb+jR1SdFMbX5dYLmT8PwrcqSQ9Aaj6WcCL0MVG3dAjZTeWXDzFgrUzWjLkpn4pvLVFAg+5y8PKNgPqCcDSx4O9v4E3p/bVZPWnUy0/RLDXjSn+FK36k78H/pB/qex0IXoC8HygR9ekYNtfA+XTP7Z4U0CHqy9xveefhQ/5xsuDvT9pagKQ+LcAjwJsf/XFaTnlxJ4piy3992o37vK2/m+lEbumLAn0gYz6SaB3J05NADb+NrC7yrjkqhRt+2to21QbE5A1blzaHrFZ8/rmAB9K9z8FeGcWUBOAL18I6I5iZ99wYjpvv3DqQsv+zdqPH9cunbefnPN2SXCP5mldi4OpCUBQHwKeevPp6b6LPR+Kr6BVR4dLxns7zsGFqlnTAlsr4CFdZwtTE4CHVgZxLz1uGBXEx0i7Pp5jw4m1jDEnjzsvkKW0vnnn64Ci96v+wdyPJdQE4OcBvIpsf+WlQZ1utvyLT+VPIBLLHjcssI/Nt08J5qziP88O6hFZQU0A/iXtvzJbXXBtxwAfUDJ/ZkGAd9dQ5rmX+t7p35X1U4JYzulnZwb6oKSpOUF62hfYO3tCWrf9NRDLzd3y6UKxZfROHXNu2t/6H2fgfy1+e5fU440qLa8AEnel9/ZPvekMiYd1KG/2coENgp1Gn99X4uGa5Jy3StN8F7wCiKT0vgDoel3q9/tzpPWoUSVzv9wd6H1mDBtzloflzVIiNmbUrA/kzyYYIVpeARy8J323nXVVYNv+GpXcsGhxUIudt8k+Kzfol/7HKZv2aTpzruwVAAHwK+Btf00oXJi/Oe130mbIqJHp2eHXnZKpadwRggBEUtoCMHKCu8Xv02fnkryNadwe0HNYzlBr3jAWTslP100TgEhKUwD63yyy7a8plRtWFmxJw7/oCYOHDve+rmlabJiSpiVSlAXAmqaHUfcbRtu1fETm0KGmtKBgfSq3CnY5bdDQPnY9TGOMGfBfS94O1VKJliIAnmVe9r3W0jM0ovN555mK7evWbvJ/+HOrUwb16x/szj4unHXmoreD/fwjigiAR60uuiZVq9+lXrtBg64wezYV7tyxu8bTDcR79OnZp1ef1K/wkUqxUWd9NTXA4wQjiQB4c9aEntIjtOTEE40xNUWFu3YWl+xz+sFZm65du3Y7udfJ4fi5aHXRmM8+kDzde/iF4x/aNpZt+2tGq561oSor2bev9GBFRUVFeUVF3VcFsSxjsrLaZ2Vltc/q0rXrCdIDu9R6/HdnzrB8rUSrEQD3ul3/Hfs2irWgQ4dTjvtKdaXJCORI3jTLvPLiGR9bcnB0CBEAtzIvuyISa8ZkROafPuu68R/OqpKeIqQi81MQkPiFNuz3h/o6TPiHj2xeMdliBMCVobdY+6mYbh0nXDzNpoXSQoMAuHDahMHSI6Ap3X4wPiTnT7MKAXCs/e2BrPcHr07++Z9XSc8QOnbv6mGTTv9j2X6/OF6b+/pLjxA6BMCpO4Jd8QseZN7XVXqEsCEADvXIlZ4ALev8z9IThA0BcGiQ9ABwYvhZ0hOEDAFwqIv0AHDkXOkBQoYAOGTjkb9oiI0A7hAAh/i8NBz4pMYdAuCQ1ELYQDoRAEAxAgAoRgAAxQgAoBgBABQjAIBiBABQjAAAihEAQDECAChGAADFCACgGAEAFCMAgGIEAFCMAACKEQBAMQIAKEYAAMUIAKAYAQAUIwCAYgQAUIwAAIoRAEAxAgAoRgAAxQgAoBgBABQjAIBiBABQjAAAihEAQDECAChGAADFCACgGAEAFCMAgGIEAFCMAACKEQBAMQIAKEYAAMUIAKAYAQAUIwCAYgQAUIwAAIoRAEAxAgAoRgAAxQgAoBgBABQjAIBiBABQjAAAihEAQDECAChGAADFCACgGAEAFCMADsWkB0AwlP1DEwCHMqQHQDCUPSOUPVzv2kgPgGC0kh4gWATAodbSAyAYyp4Ryh6udwRAiQ7SAwSLADjURXoABKO79ADBIgDOxHpJT4BAtGsnPUGwtAQgs62/63f1eX2ERE/pAQKmJQCthvi7fm/pB4BgDJQeIGBaAmCy/V39VOn54Yzf/TUGSD+AgKkJwHB/Vz9Ten4407ujr6vHTpd+AAFTE4Aevl7bdesrPT+ciftL9QBtn/aoCYAZ6+fKucr2EA+xc3xde6T0+EHTE4BRfvbw8PdThQAN9vOBbVzdP7SeALT+rvfrDhgkPT2cil3s48pna3sHoCgA5grvLwEul54dzl3g40n8D9LDB05RALKu8nrNk/gMIETaXOn5qsNOkx4+cIoCYC4+0eMVr9X0txR+F3rdmy9+k/TowdP0o51xh7dt+cPVbRkKt4wfePzM5vxTpEcPnqYAmCGe3su3uV16brgz+AJPV+tyo/TgAlQFwFzb38OVrukhPTZcusXLR4GxO9tLzy1AVwAy7uns+jojL5OeGm5l/iTT/ZX+wefe4uGkKwCm+y/cVr7XXewEGD69f+z6Bzt7gvTQIpQFwPT+qbu1vU74N2ULRETECLcbAk/5ibanQi11j3rwf7rZH6jjL5StEBUZF97uqgB9/0Ppii+xpPQEgSt8tNjpRbv9x0nS08Kruc8lHF/21H/XuAHQGJUBMKVPrXN2wV6/ULdreJSseWq/w0uOvtPDRsNo0BgAk5jxbrWDi517G+//Q23fxPVOLha/7gq9G3pVBsCYbZM3t3SRrNvZATDsEjPeO9TihXrfqe8IgGOUBsAkF7+zs7nvx0fe1E16Rvi3682lzV8g8/LvqT7to9YAGJOY88nmpr6XecF4dv+LiNVTVzX9zYzvXtVJekBZegNgjCn8cl4jm4kyhp19Vpb0aEidzTMXVzb6ja7fvbCz9HDSVAfAmGThqtUbS4/9uW2/UwcMY9Nf1FQuWbqq7Liv9RgxYqi6vWAaUh4AY4wxVUV7vjGHDrXt3LFTd72bgyMuuW3z9p0lBw4kTcYJHbv07tfP6+IQEUMAAMV4EQQoRgAAxQgAoBgBABQjAIBiBABQjAAAihEAQDECAChGAADFCACgGAEAFCMAgGIEAFCMAACKEQBAMQIAKEYAAMUIAKAYAQAUIwCAYgQAUIwAAIoRAEAxAgAoRgAAxQgAoBgBABQjAIBiBABQjAAAihEAQDECAChGAADFCACgGAEAFCMAgGIEAFCMAACKEQBAMQIAKEYAAMUIAKAYAQAUIwCAYgQAUIwAAIoRAEAxAgAoRgAAxQgAoBgBABQjAIBiBABQjAAAihEAQDECAChGAADFCACgGAEAFCMAgGIEAFCMAACKEQBAMQIAKEYAAMUIAKAYAQAUIwCAYgQAUIwAAIoRAEAxAgAoRgAAxQgAoBgBABQjAIBiBABQjAAAihEAQDECAChGAADFCACgGAEAFCMAgGIEAFCMAACKEQBAMQIAKEYAAMUIAKAYAQAUIwCAYgQAUIwAAIoRAEAxAgAoRgAAxQgAoBgBABQjAIBiBABQjAAAihEAQDECAChGAADFCACgGAEAFCMAgGIEAFCMAACKEQBAMQIAKEYAAMUIAKAYAQAUIwCAYgQAUIwAAIoRAEAxAgAoRgAAxQgAoBgBABQjAIBiBABQjAAAihEAQDECAChGAADFCACgGAEAFCMAgGIEAFCMAACKEQBAMQIAKEYAAMUIAKAYAQAUIwCAYgQAUIwAAIoRAEAxAgAoRgAAxQgAoBgBABQjAIBiBABQjAAAihEAQDECAChGAADFCACgGAEAFCMAgGIEAFCMAACKEQBAMQIAKEYAAMUIAKAYAQAUIwCAYgQAUIwAAIoRAEAxAgAoRgAAxQgAoBgBABQjAIBiBABQjAAAihEAQDECAChGAADFCACgGAEAFCMAgGIEAFCMAACKEQBAMQIAKEYAAMUIAKAYAQAUIwCAYgQAUIwAAIoRAEAxAgAoRgAAxQgAoBgBABQjAIBiBABQjAAAihEAQDECAChGAADFCACgGAEAFCMAgGIEAFCMAACKEQBAMQIAKEYAAMUIAKAYAQAUIwCAYgQAUIwAAIoRAEAxAgAoRgAAxQgAoBgBABQjAIBiBABQjAAAihEAQDECAChGAADFCACgGAEAFCMAgGIEAFCMAACKEQBAMQIAKEYAAMUIAKAYAQAUIwCAYgQAUIwAAIoRAEAxAgAoRgAAxQgAoBgBABQjAIBiBABQjAAAihEAQDECAChGAADFCACgGAEAFCMAgGIEAFCMAACKEQBAMQIAKEYAAMUIAKAYAQAUIwCAYgQAUIwAAIoRAEAxAgAoRgAAxQgAoBgBABQjAIBiBABQjAAAihEAQDECAChGAADFCACgGAEAFCMAgGIEAFCMAACKEQBAMQIAKEYAAMUIAKAYAQAUIwCAYgQAUIwAAIoRAEAxAgAo9v8BCXmFypGYJIQAAAAldEVYdGRhdGU6Y3JlYXRlADIwMjQtMDQtMTZUMTY6MDU6MjMrMDg6MDAA2JpXAAAAJXRFWHRkYXRlOm1vZGlmeQAyMDI0LTA0LTE2VDE2OjA1OjIzKzA4OjAwcYUi6wAAAABJRU5ErkJggg==;strokeColor=#000000;" parent="1" vertex="1">
          <mxGeometry x="486.57904761904774" y="941.41" width="41.285714285714285" height="41.285714285714285" as="geometry" />
        </mxCell>
        <mxCell id="RbJy5xU_9MsWEOmdEW4p-11" value="智能体" style="text;html=1;align=center;verticalAlign=middle;resizable=0;points=[];autosize=1;strokeColor=none;fillColor=none;" parent="1" vertex="1">
          <mxGeometry x="477.93619047619063" y="963.91" width="60" height="30" as="geometry" />
        </mxCell>
        <mxCell id="HPWIlRK9j7Oqh2TovCJY-1" value="" style="shape=flexArrow;endArrow=classic;html=1;rounded=0;exitX=0.5;exitY=0;exitDx=0;exitDy=0;fillColor=#d5e8d4;strokeColor=#82b366;" edge="1" parent="1" source="-TU9CiSfj5TCnxWYMpBO-4">
          <mxGeometry width="50" height="50" relative="1" as="geometry">
            <mxPoint x="494.84000000000003" y="820" as="sourcePoint" />
            <mxPoint x="507.84000000000003" y="760" as="targetPoint" />
          </mxGeometry>
        </mxCell>
        <mxCell id="HPWIlRK9j7Oqh2TovCJY-2" value="无人机状态&lt;div&gt;[X,Y,Z,V,V,V]&lt;/div&gt;" style="rounded=1;whiteSpace=wrap;html=1;fillColor=#d5e8d4;strokeColor=#82b366;" vertex="1" parent="1">
          <mxGeometry x="454.84000000000003" y="700" width="120" height="60" as="geometry" />
        </mxCell>
      </root>
    </mxGraphModel>
  </diagram>
</mxfile>
